Exact Audio Copy V0.99 prebeta 1 from 25. May 2007

EAC 抓取日志文件从13. 十月 2010, 22:06

程琳 / 20世纪中华歌坛名人百集珍藏版

使用驱动器  ：BENQ    DVD-ROM 16X   Adapter: 0  ID: 1

读取模式     : 保护
使用精确流   : 是
废除音频缓冲 : 是
使用 C2 指针 : 否

读取偏移校正                   : 738
读取 Lead-In 和 Lead-Out       : 否
用静音填充抓取中丢失偏移的采样 : 是
去除首尾静音块                 : 否
已用接口                       : 已安装外部 ASPI 接口

所用输出格式 : 内部 WAV 函数
样本格式     : 44.100 Hz;16 Bit;立体声


被抓轨 CD 的 TOC

     音轨 |   开始   |   长度   | 起始扇区 | 结尾扇区 
    --------------------------------------------------
       1  |  0:00.32 |  4:28.28 |      32  |   20159  
       2  |  4:28.60 |  5:21.25 |   20160  |   44259  
       3  |  9:50.10 |  5:02.50 |   44260  |   66959  
       4  | 14:52.60 |  2:53.30 |   66960  |   79964  
       5  | 17:46.15 |  1:56.70 |   79965  |   88734  
       6  | 19:43.10 |  3:38.70 |   88735  |  105154  
       7  | 23:22.05 |  3:41.12 |  105155  |  121741  
       8  | 27:03.17 |  4:13.50 |  121742  |  140766  
       9  | 31:16.67 |  4:27.25 |  140767  |  160816  
      10  | 35:44.17 |  3:57.70 |  160817  |  178661  
      11  | 39:42.12 |  4:04.30 |  178662  |  196991  
      12  | 43:46.42 |  4:11.25 |  196992  |  215841  
      13  | 47:57.67 |  3:41.15 |  215842  |  232431  
      14  | 51:39.07 |  4:24.15 |  232432  |  252246  
      15  | 56:03.22 |  4:39.53 |  252247  |  273224  


范围状态及错误

已选择范围

     文件名 E:\文件夹\20世纪中华歌坛名人百集珍藏版-程琳[lwg188原创]\程琳 - 20世纪中华歌坛名人百集珍藏版.wav

     峰值电平 100.0 %
     范围质量 100.0 %
     复制 CRC 2F4A21E5
     复制成功

没有错误发生

状态报告结尾
